HIERARCHY
ROOT hip
{
  OFFSET 0 0 0
  CHANNELS 6 Xposition Yposition Zposition Zrotation Yrotation Xrotation
  JOINT abdomen
  {
    OFFSET 0 20.6881 -0.73152
    CHANNELS 3 Zrotation Xrotation Yrotation
    JOINT chest
    {
      OFFSET 0 11.7043 -0.48768
      CHANNELS 3 Zrotation Xrotation Yrotation
      JOINT neck
      {
        OFFSET 0 22.1894 -2.19456
        CHANNELS 3 Zrotation Xrotation Yrotation
        JOINT head
        {
          OFFSET -0.24384 7.07133 1.2192
          CHANNELS 3 Zrotation Xrotation Yrotation
          JOINT leftEye
          {
            OFFSET 4.14528 8.04674 8.04672
            CHANNELS 3 Zrotation Xrotation Yrotation
            End Site
            {
              OFFSET 1 0 0
            }
          }
          JOINT rightEye
          {
            OFFSET -3.6576 8.04674 8.04672
            CHANNELS 3 Zrotation Xrotation Yrotation
            End Site
            {
              OFFSET 1 0 0
            }
          }
        }
      }
      JOINT rCollar
      {
        OFFSET -2.68224 19.2634 -4.8768
        CHANNELS 3 Zrotation Xrotation Yrotation
        JOINT rShldr
        {
          OFFSET -8.77824 -1.95073 1.46304
          CHANNELS 3 Zrotation Xrotation Yrotation
          JOINT rForeArm
          {
            OFFSET -28.1742 -1.7115 0.48768
            CHANNELS 3 Zrotation Xrotation Yrotation
            JOINT rHand
            {
              OFFSET -22.5879 0.773209 7.07136
              CHANNELS 3 Zrotation Xrotation Yrotation
              JOINT rThumb1
              {
                OFFSET -1.2192 -0.487915 3.41376
                CHANNELS 3 Zrotation Xrotation Yrotation
                JOINT rThumb2
                {
                  OFFSET -3.37035 -0.52449 3.41376
                  CHANNELS 3 Zrotation Xrotation Yrotation
                  End Site
                  {
                    OFFSET -1.78271 -1.18214 1.43049
                  }
                }
              }
              JOINT rIndex1
              {
                OFFSET -7.75947 0.938293 5.60832
                CHANNELS 3 Zrotation Xrotation Yrotation
                JOINT rIndex2
                {
                  OFFSET -2.54057 -0.884171 1.56538
                  CHANNELS 3 Zrotation Xrotation Yrotation
                  End Site
                  {
                    OFFSET -1.62519 -0.234802 1.16502
                  }
                }
              }
              JOINT rMid1
              {
                OFFSET -8.24714 1.18213 3.41376
                CHANNELS 3 Zrotation Xrotation Yrotation
                JOINT rMid2
                {
                  OFFSET -3.10165 -0.590103 1.0647
                  CHANNELS 3 Zrotation Xrotation Yrotation
                  End Site
                  {
                    OFFSET -2.48547 -0.328903 0.83742
                  }
                }
              }
              JOINT rRing1
              {
                OFFSET -8.82822 0.546677 1.51678
                CHANNELS 3 Zrotation Xrotation Yrotation
                JOINT rRing2
                {
                  OFFSET -2.60934 -0.819778 -0.0198488
                  CHANNELS 3 Zrotation Xrotation Yrotation
                  End Site
                  {
                    OFFSET -2.33842 -0.294052 0.168128
                  }
                }
              }
              JOINT rPinky1
              {
                OFFSET -8.27202 -0.0477905 -0.4584
                CHANNELS 3 Zrotation Xrotation Yrotation
                JOINT rPinky2
                {
                  OFFSET -1.82734 -0.647385 -0.700984
                  CHANNELS 3 Zrotation Xrotation Yrotation
                  End Site
                  {
                    OFFSET -1.69225 -0.51767 -0.607171
                  }
                }
              }
            }
          }
        }
      }
      JOINT lCollar
      {
        OFFSET 2.68224 19.2634 -4.8768
        CHANNELS 3 Zrotation Xrotation Yrotation
        JOINT lShldr
        {
          OFFSET 8.77824 -1.95073 1.46304
          CHANNELS 3 Zrotation Xrotation Yrotation
          JOINT lForeArm
          {
            OFFSET 28.1742 -1.7115 0.48768
            CHANNELS 3 Zrotation Xrotation Yrotation
            JOINT lHand
            {
              OFFSET 22.5879 0.773209 7.07136
              CHANNELS 3 Zrotation Xrotation Yrotation
              JOINT lThumb1
              {
                OFFSET 1.2192 -0.487915 3.41376
                CHANNELS 3 Zrotation Xrotation Yrotation
                JOINT lThumb2
                {
                  OFFSET 3.37035 -0.52449 3.41376
                  CHANNELS 3 Zrotation Xrotation Yrotation
                  End Site
                  {
                    OFFSET 1.78271 -1.18214 1.43049
                  }
                }
              }
              JOINT lIndex1
              {
                OFFSET 7.75947 0.938293 5.60832
                CHANNELS 3 Zrotation Xrotation Yrotation
                JOINT lIndex2
                {
                  OFFSET 2.54057 -0.884171 1.56538
                  CHANNELS 3 Zrotation Xrotation Yrotation
                  End Site
                  {
                    OFFSET 1.62519 -0.234802 1.16502
                  }
                }
              }
              JOINT lMid1
              {
                OFFSET 8.24714 1.18213 3.41376
                CHANNELS 3 Zrotation Xrotation Yrotation
                JOINT lMid2
                {
                  OFFSET 3.10165 -0.590103 1.0647
                  CHANNELS 3 Zrotation Xrotation Yrotation
                  End Site
                  {
                    OFFSET 2.48547 -0.328903 0.83742
                  }
                }
              }
              JOINT lRing1
              {
                OFFSET 8.82822 0.546677 1.51678
                CHANNELS 3 Zrotation Xrotation Yrotation
                JOINT lRing2
                {
                  OFFSET 2.60934 -0.819778 -0.0198488
                  CHANNELS 3 Zrotation Xrotation Yrotation
                  End Site
                  {
                    OFFSET 2.33842 -0.294052 0.168128
                  }
                }
              }
              JOINT lPinky1
              {
                OFFSET 8.27202 -0.0477905 -0.4584
                CHANNELS 3 Zrotation Xrotation Yrotation
                JOINT lPinky2
                {
                  OFFSET 1.82734 -0.647385 -0.700984
                  CHANNELS 3 Zrotation Xrotation Yrotation
                  End Site
                  {
                    OFFSET 1.69225 -0.51767 -0.607171
                  }
                }
              }
            }
          }
        }
      }
    }
  }
  JOINT rButtock
  {
    OFFSET -8.77824 4.35084 1.2192
    CHANNELS 3 Zrotation Xrotation Yrotation
    JOINT rThigh
    {
      OFFSET 0 -1.70687 -2.19456
      CHANNELS 3 Zrotation Xrotation Yrotation
      JOINT rShin
      {
        OFFSET 0 -36.8199 0.73152
        CHANNELS 3 Zrotation Xrotation Yrotation
        JOINT rFoot
        {
          OFFSET 0.73152 -45.1104 -5.12064
          CHANNELS 3 Zrotation Xrotation Yrotation
          End Site
          {
            OFFSET -1.1221 -3.69964 12.103
          }
        }
      }
    }
  }
  JOINT lButtock
  {
    OFFSET 8.77824 4.35084 1.2192
    CHANNELS 3 Zrotation Xrotation Yrotation
    JOINT lThigh
    {
      OFFSET 0 -1.70687 -2.19456
      CHANNELS 3 Zrotation Xrotation Yrotation
      JOINT lShin
      {
        OFFSET 0 -36.8199 0.73152
        CHANNELS 3 Zrotation Xrotation Yrotation
        JOINT lFoot
        {
          OFFSET -0.73152 -45.1104 -5.12064
          CHANNELS 3 Zrotation Xrotation Yrotation
          End Site
          {
            OFFSET 1.1221 -3.69964 12.103
          }
        }
      }
    }
  }
}
MOTION
Frames:	5
Frame Time:	0.03333
-0.08850002741382923 73.60829710960388 6.233000075735617 -7.019923210144043 42.506893157958984 2.2731199264526367 -0.10752838104963303 3.506071090698242 6.509618282318115 1.9414750337600708 -7.059208393096924 1.9030041694641113 -9.39702033996582 21.735097885131836 -14.587889671325684 14.18160343170166 -26.760000228881836 -25.953306198120117 -0.0 0.0 -0.0 -0.0 0.0 -0.0 -0.0 0.0 -0.0 44.45130920410156 11.733183860778809 36.7688102722168 -28.319398880004883 -33.10459899902344 72.24069213867188 -5.172971248626709 52.429534912109375 10.515388488769531 -0.0 0.0 -0.0 -0.0 0.0 -0.0 -0.0 0.0 -0.0 7.73087739944458 5.47489595413208 0.41732463240623474 -0.0 0.0 -0.0 2.9054994583129883 0.9650753736495972 0.10300876200199127 -0.0 0.0 -0.0 10.278595924377441 0.7317469120025635 0.026285577565431595 -0.0 0.0 -0.0 2.221662759780884 -0.7335850596427917 -0.20831839740276337 -0.0 0.0 -0.0 15.057791709899902 32.91339874267578 -119.22799682617188 26.34669303894043 -24.358501434326172 -58.25359344482422 1.052980661392212 27.81060218811035 -4.251376628875732 -0.0 0.0 -0.0 -0.0 0.0 -0.0 -0.0 0.0 -0.0 -7.73087739944458 5.47489595413208 -0.41732463240623474 -0.0 0.0 -0.0 -2.9054994583129883 0.9650753736495972 -0.10300876200199127 -0.0 0.0 -0.0 -10.278595924377441 0.7317469120025635 -0.026285577565431595 -0.0 0.0 -0.0 -2.221662759780884 -0.7335850596427917 0.20831839740276337 -0.0 0.0 -0.0 9.13608455657959 -9.21676254272461 -7.131896495819092 -0.3061099052429199 45.69170379638672 1.7411420345306396 -21.62580108642578 -22.462600708007812 -36.92680358886719 -0.0 0.0 -0.0 -9.05594253540039 -59.875606536865234 -15.787010192871094 1.5451643466949463 65.1072769165039 -1.6868563890457153 -1.424440622329712 -10.86539363861084 -5.543612003326416
-0.0039000293327262625 73.46749901771545 6.391600072674919 -7.182382583618164 42.573890686035156 2.359253406524658 0.012893186882138252 3.419252395629883 6.382668495178223 1.9584530591964722 -7.09930419921875 1.8699508905410767 -9.442171096801758 21.622501373291016 -14.557497024536133 14.180002212524414 -26.570293426513672 -25.900602340698242 -0.0 0.0 -0.0 -0.0 0.0 -0.0 -0.0 0.0 -0.0 45.364192962646484 11.65310287475586 35.739994049072266 -28.324604034423828 -33.166500091552734 72.34229278564453 -5.446505069732666 53.23759841918945 10.843221664428711 -0.0 0.0 -0.0 -0.0 0.0 -0.0 -0.0 0.0 -0.0 7.73087739944458 5.47489595413208 0.41732463240623474 -0.0 0.0 -0.0 2.9054994583129883 0.9650753736495972 0.10300876200199127 -0.0 0.0 -0.0 10.278595924377441 0.7317469120025635 0.026285577565431595 -0.0 0.0 -0.0 2.221662759780884 -0.7335850596427917 -0.20831839740276337 -0.0 0.0 -0.0 15.487106323242188 32.8921012878418 -119.49199676513672 26.28289222717285 -24.183002471923828 -57.97178649902344 1.036802887916565 27.801136016845703 -4.245788097381592 -0.0 0.0 -0.0 -0.0 0.0 -0.0 -0.0 0.0 -0.0 -7.73087739944458 5.47489595413208 -0.41732463240623474 -0.0 0.0 -0.0 -2.9054994583129883 0.9650753736495972 -0.10300876200199127 -0.0 0.0 -0.0 -10.278595924377441 0.7317469120025635 -0.026285577565431595 -0.0 0.0 -0.0 -2.221662759780884 -0.7335850596427917 0.20831839740276337 -0.0 0.0 -0.0 9.107413291931152 -9.338887214660645 -7.557042121887207 -0.30904561281204224 45.87870407104492 1.755415678024292 -21.722997665405273 -22.630706787109375 -36.91200637817383 -0.0 0.0 -0.0 -9.294666290283203 -60.208892822265625 -16.16703224182129 1.5915828943252563 65.59220886230469 -1.7387624979019165 -1.3796383142471313 -11.106518745422363 -5.307030200958252
0.09309997003583703 73.30970168113708 6.5785000755568035 -7.18382453918457 42.53645706176758 2.5527775287628174 0.040187180042266846 3.3193538188934326 6.254673957824707 1.995763897895813 -7.117102146148682 1.8363182544708252 -9.501456260681152 21.526702880859375 -14.491497039794922 14.205100059509277 -26.630685806274414 -25.762001037597656 -0.0 0.0 -0.0 -0.0 0.0 -0.0 -0.0 0.0 -0.0 46.21659851074219 11.797207832336426 34.876991271972656 -28.33229637145996 -33.25820541381836 72.49190521240234 -5.316878318786621 52.89504623413086 10.696592330932617 -0.0 0.0 -0.0 -0.0 0.0 -0.0 -0.0 0.0 -0.0 7.73087739944458 5.47489595413208 0.41732463240623474 -0.0 0.0 -0.0 2.9054994583129883 0.9650753736495972 0.10300876200199127 -0.0 0.0 -0.0 10.278595924377441 0.7317469120025635 0.026285577565431595 -0.0 0.0 -0.0 2.221662759780884 -0.7335850596427917 -0.20831839740276337 -0.0 0.0 -0.0 15.618500709533691 32.970401763916016 -119.46599578857422 26.229106903076172 -24.036985397338867 -57.737491607666016 1.008682370185852 27.276296615600586 -4.155564785003662 -0.0 0.0 -0.0 -0.0 0.0 -0.0 -0.0 0.0 -0.0 -7.73087739944458 5.47489595413208 -0.41732463240623474 -0.0 0.0 -0.0 -2.9054994583129883 0.9650753736495972 -0.10300876200199127 -0.0 0.0 -0.0 -10.278595924377441 0.7317469120025635 -0.026285577565431595 -0.0 0.0 -0.0 -2.221662759780884 -0.7335850596427917 0.20831839740276337 -0.0 0.0 -0.0 9.073716163635254 -9.499530792236328 -7.761621475219727 -0.3119703531265259 46.063594818115234 1.7700438499450684 -21.8540096282959 -22.698198318481445 -37.02629470825195 -0.0 0.0 -0.0 -9.393193244934082 -60.58856964111328 -16.298967361450195 1.6441495418548584 66.10659790039062 -1.7961106300354004 -1.341528296470642 -11.398710250854492 -5.0782246589660645
0.22339997267408762 73.13200235366821 6.815300085872877 -7.220896244049072 42.39927673339844 2.756375789642334 0.0041488781571388245 3.2410519123077393 6.191027641296387 2.0210824012756348 -7.136359214782715 1.8196206092834473 -9.570719718933105 21.428789138793945 -14.410993576049805 14.266098022460938 -26.765600204467773 -25.583402633666992 -0.0 0.0 -0.0 -0.0 0.0 -0.0 -0.0 0.0 -0.0 47.08689880371094 11.970808029174805 34.10789489746094 -28.336902618408203 -33.31539535522461 72.58538818359375 -5.154356002807617 52.29840087890625 10.476323127746582 -0.0 0.0 -0.0 -0.0 0.0 -0.0 -0.0 0.0 -0.0 7.73087739944458 5.47489595413208 0.41732463240623474 -0.0 0.0 -0.0 2.9054994583129883 0.9650753736495972 0.10300876200199127 -0.0 0.0 -0.0 10.278595924377441 0.7317469120025635 0.026285577565431595 -0.0 0.0 -0.0 2.221662759780884 -0.7335850596427917 -0.20831839740276337 -0.0 0.0 -0.0 15.675996780395508 33.08570098876953 -119.34400177001953 26.178794860839844 -23.902198791503906 -57.51979446411133 0.9628392457962036 26.51399803161621 -4.024197101593018 -0.0 0.0 -0.0 -0.0 0.0 -0.0 -0.0 0.0 -0.0 -7.73087739944458 5.47489595413208 -0.41732463240623474 -0.0 0.0 -0.0 -2.9054994583129883 0.9650753736495972 -0.10300876200199127 -0.0 0.0 -0.0 -10.278595924377441 0.7317469120025635 -0.026285577565431595 -0.0 0.0 -0.0 -2.221662759780884 -0.7335850596427917 0.20831839740276337 -0.0 0.0 -0.0 9.069150924682617 -9.623230934143066 -7.770017623901367 -0.31401771306991577 46.2234001159668 1.7856943607330322 -22.03730010986328 -22.716598510742188 -37.255401611328125 -0.0 0.0 -0.0 -9.390727996826172 -60.95541763305664 -16.27725601196289 1.7024587392807007 66.64850616455078 -1.858976125717163 -1.2942793369293213 -11.769795417785645 -4.806725025177002
0.3719999749591807 72.94049859046936 7.06170007615583 -7.182426929473877 42.13719940185547 2.901796340942383 -0.03180122748017311 3.2232115268707275 6.276625633239746 1.9817143678665161 -7.185044288635254 1.8420697450637817 -9.654419898986816 21.335901260375977 -14.322890281677246 14.412899017333984 -26.869609832763672 -25.373693466186523 -0.0 0.0 -0.0 -0.0 0.0 -0.0 -0.0 0.0 -0.0 48.02919006347656 11.985827445983887 33.4157829284668 -28.333200454711914 -33.26880645751953 72.5088882446289 -5.117783069610596 52.10768508911133 10.414216995239258 -0.0 0.0 -0.0 -0.0 0.0 -0.0 -0.0 0.0 -0.0 7.73087739944458 5.47489595413208 0.41732463240623474 -0.0 0.0 -0.0 2.9054994583129883 0.9650753736495972 0.10300876200199127 -0.0 0.0 -0.0 10.278595924377441 0.7317469120025635 0.026285577565431595 -0.0 0.0 -0.0 2.221662759780884 -0.7335850596427917 -0.20831839740276337 -0.0 0.0 -0.0 15.885187149047852 33.17628860473633 -119.28797912597656 26.131601333618164 -23.77699089050293 -57.31980514526367 0.8604032397270203 25.574159622192383 -3.8528928756713867 -0.0 0.0 -0.0 -0.0 0.0 -0.0 -0.0 0.0 -0.0 -7.73087739944458 5.47489595413208 -0.41732463240623474 -0.0 0.0 -0.0 -2.9054994583129883 0.9650753736495972 -0.10300876200199127 -0.0 0.0 -0.0 -10.278595924377441 0.7317469120025635 -0.026285577565431595 -0.0 0.0 -0.0 -2.221662759780884 -0.7335850596427917 0.20831839740276337 -0.0 0.0 -0.0 9.2092866897583 -9.641273498535156 -7.477105140686035 -0.3130737245082855 46.32759475708008 1.8044553995132446 -22.325794219970703 -22.680301666259766 -37.67949295043945 -0.0 0.0 -0.0 -9.216797828674316 -61.294681549072266 -16.103593826293945 1.769718885421753 67.2505111694336 -1.9305596351623535 -1.227670431137085 -12.24789810180664 -4.463040828704834
